<svg xmlns="http://www.w3.org/2000/svg" viewBox="0 0 24 24" fill="currentColor">
  <path d="M6.5 2.5c-1.1 1.2-1.7 2.8-1.7 4.6 0 2 .8 3.8 2 5.4-.9.6-1.6 1.5-2 2.6-.5 1.3-.6 2.9-.3 4.6a1 1 0 0 0 2-.4c-.3-1.4-.2-2.6.1-3.5.4-1 1-1.6 1.7-1.9.4.3.9.5 1.4.7v3.3l-1.2 1.2a1 1 0 1 0 1.4 1.4l.8-.8.8.8a1 1 0 0 0 1.4-1.4L11.9 18v-3.3c.5-.2 1-.4 1.4-.7.7.3 1.3.9 1.7 1.9.3.9.4 2.1.1 3.5a1 1 0 0 0 2 .4c.3-1.7.2-3.3-.3-4.6-.4-1.1-1.1-2-2-2.6 1.2-1.6 2-3.4 2-5.4 0-1.8-.6-3.4-1.7-4.6a1 1 0 0 0-1.6.3l-1 2.1a5.7 5.7 0 0 0-3 0l-1-2.1a1 1 0 0 0-1.6-.3Z"/>
</svg>
